<svg xmlns="http://www.w3.org/2000/svg" xmlns:xlink="http://www.w3.org/1999/xlink" width="603" zoomAndPan="magnify" viewBox="0 0 452.25 440.25" height="587" preserveAspectRatio="xMidYMid meet" version="1.0"><defs><clipPath id="9e31cae1e8"><path d="M 0.0117188 142 L 451 142 L 451 439.1875 L 0.0117188 439.1875 Z M 0.0117188 142 " clip-rule="nonzero"/></clipPath><clipPath id="a32bba00bf"><path d="M 286 0.4375 L 380 0.4375 L 380 135 L 286 135 Z M 286 0.4375 " clip-rule="nonzero"/></clipPath><clipPath id="eea5aa9c7a"><path d="M 72 0.4375 L 166 0.4375 L 166 135 L 72 135 Z M 72 0.4375 " clip-rule="nonzero"/></clipPath></defs><g clip-path="url(#9e31cae1e8)"><path fill="#060047" d="M 323.964844 300.042969 L 127.535156 300.042969 C 118.683594 277.136719 108.105469 256.847656 96.921875 239.105469 L 354.578125 239.105469 C 343.394531 256.847656 332.820312 277.136719 323.964844 300.042969 Z M 299.472656 431.464844 L 152.03125 431.464844 C 151.84375 411.460938 150.199219 392.582031 147.429688 374.765625 L 304.070312 374.765625 C 301.300781 392.582031 299.660156 411.460938 299.472656 431.464844 Z M 450.378906 144.109375 C 449.273438 142.3125 446.910156 141.75 445.117188 142.863281 C 444.746094 143.085938 435.15625 149.152344 421.070312 161.332031 L 30.433594 161.332031 C 16.347656 149.152344 6.753906 143.085938 6.382812 142.863281 C 4.589844 141.75 2.230469 142.3125 1.121094 144.109375 C 0.0117188 145.902344 0.570312 148.261719 2.367188 149.371094 C 3.792969 150.246094 144.394531 239.261719 144.394531 435.285156 C 144.394531 437.398438 146.105469 439.105469 148.214844 439.105469 L 303.28125 439.105469 C 305.394531 439.105469 307.109375 437.398438 307.109375 435.285156 C 307.109375 239.261719 447.710938 150.246094 449.136719 149.371094 C 450.929688 148.261719 451.488281 145.902344 450.378906 144.109375 " fill-opacity="1" fill-rule="nonzero"/></g><path fill="#060047" d="M 222.511719 132.445312 C 223.21875 133.554688 224.433594 134.230469 225.75 134.230469 C 227.066406 134.230469 228.285156 133.554688 228.988281 132.445312 L 251.925781 96.128906 C 252.667969 94.957031 252.710938 93.460938 252.039062 92.242188 C 251.367188 91.019531 250.082031 90.269531 248.6875 90.269531 L 229.554688 90.269531 L 229.554688 9.496094 C 229.554688 7.386719 227.84375 5.671875 225.734375 5.671875 C 223.621094 5.671875 221.90625 7.386719 221.90625 9.496094 L 221.90625 90.269531 L 202.8125 90.269531 C 201.417969 90.269531 200.132812 91.019531 199.460938 92.242188 C 198.789062 93.460938 198.832031 94.957031 199.574219 96.128906 L 222.511719 132.445312 " fill-opacity="1" fill-rule="nonzero"/><g clip-path="url(#a32bba00bf)"><path fill="#060047" d="M 309.71875 132.445312 C 310.421875 133.554688 311.644531 134.230469 312.957031 134.230469 C 314.273438 134.230469 315.492188 133.554688 316.195312 132.445312 L 339.136719 96.128906 C 339.875 94.957031 339.921875 93.460938 339.246094 92.242188 C 338.570312 91.019531 337.292969 90.269531 335.894531 90.269531 L 317.128906 90.269531 C 318.789062 75.730469 328.015625 25.320312 376.714844 8.40625 C 378.707031 7.714844 379.765625 5.535156 379.070312 3.539062 C 378.375 1.550781 376.207031 0.480469 374.199219 1.1875 C 320.617188 19.792969 311.050781 75.425781 309.445312 90.269531 L 290.019531 90.269531 C 288.625 90.269531 287.339844 91.019531 286.667969 92.242188 C 285.996094 93.460938 286.039062 94.957031 286.78125 96.128906 L 309.71875 132.445312 " fill-opacity="1" fill-rule="nonzero"/></g><g clip-path="url(#eea5aa9c7a)"><path fill="#060047" d="M 74.792969 8.40625 C 123.386719 25.28125 132.683594 75.722656 134.363281 90.269531 L 115.605469 90.269531 C 114.210938 90.269531 112.929688 91.019531 112.257812 92.242188 C 111.582031 93.460938 111.628906 94.957031 112.367188 96.128906 L 135.304688 132.445312 C 136.007812 133.554688 137.230469 134.230469 138.546875 134.230469 C 139.859375 134.230469 141.078125 133.554688 141.78125 132.445312 L 164.722656 96.128906 C 165.460938 94.957031 165.507812 93.460938 164.835938 92.242188 C 164.160156 91.019531 162.878906 90.269531 161.480469 90.269531 L 142.058594 90.269531 C 140.449219 75.425781 130.886719 19.792969 77.308594 1.1875 C 75.308594 0.480469 73.128906 1.546875 72.4375 3.539062 C 71.742188 5.535156 72.800781 7.714844 74.792969 8.40625 " fill-opacity="1" fill-rule="nonzero"/></g></svg>