<svg xmlns="http://www.w3.org/2000/svg" xmlns:xlink="http://www.w3.org/1999/xlink" width="612" zoomAndPan="magnify" viewBox="0 0 458.88 106.499997" height="142" preserveAspectRatio="xMidYMid meet" version="1.0"><defs><clipPath id="008f80c745"><path d="M 1.011719 0.0273438 L 230.1875 0.0273438 L 230.1875 106 L 1.011719 106 Z M 1.011719 0.0273438 " clip-rule="nonzero"/></clipPath><clipPath id="e2664d2674"><path d="M 228.691406 0.0273438 L 457.5625 0.0273438 L 457.5625 106 L 228.691406 106 Z M 228.691406 0.0273438 " clip-rule="nonzero"/></clipPath></defs><g clip-path="url(#008f80c745)"><path fill="#060047" d="M 228.347656 1.035156 C 225.769531 9.101562 219.160156 15.152344 210.984375 17.167969 C 202.109375 19.375 192.800781 17.230469 184.429688 13.953125 C 179.902344 12.125 175.496094 9.984375 171.03125 7.902344 C 166.6875 5.886719 162.347656 3.742188 157.691406 2.421875 C 153.414062 1.222656 148.882812 0.84375 144.605469 2.105469 C 141.207031 3.113281 138.1875 5.003906 135.355469 7.082031 C 129.628906 11.371094 124.34375 16.976562 117.234375 18.804688 C 109.9375 20.695312 102.449219 18.050781 95.71875 15.402344 C 88.859375 12.691406 81.8125 9.480469 74.261719 9.414062 C 66.082031 9.351562 59.664062 14.015625 53.5625 18.867188 C 50.355469 21.453125 47.144531 24.035156 43.433594 25.992188 C 39.785156 27.882812 35.882812 29.203125 31.855469 29.960938 C 23.804688 31.472656 15.246094 30.589844 7.695312 27.3125 C 5.871094 26.496094 4.109375 25.550781 2.410156 24.539062 C 2.035156 24.289062 1.71875 24.351562 1.402344 24.539062 C 1.214844 24.730469 1.027344 24.980469 1.027344 25.421875 C 1.027344 33.929688 1.027344 92.855469 1.027344 101.425781 C 1.027344 102.625 1.027344 103.820312 1.027344 105.019531 C 1.027344 105.523438 1.46875 105.964844 1.96875 105.964844 C 3.984375 105.964844 6.058594 105.964844 8.074219 105.964844 C 13.546875 105.964844 19.082031 105.964844 24.558594 105.964844 C 32.738281 105.964844 40.851562 105.964844 49.03125 105.964844 C 58.972656 105.964844 68.914062 105.964844 78.917969 105.964844 C 89.804688 105.964844 100.625 105.964844 111.511719 105.964844 C 122.519531 105.964844 133.59375 105.964844 144.605469 105.964844 C 154.796875 105.964844 165.050781 105.964844 175.246094 105.964844 C 183.929688 105.964844 192.609375 105.964844 201.230469 105.964844 C 207.460938 105.964844 213.6875 105.964844 219.917969 105.964844 C 222.875 105.964844 225.832031 106.027344 228.726562 105.964844 C 228.851562 105.964844 228.976562 105.964844 229.101562 105.964844 C 229.605469 105.964844 230.046875 105.523438 230.046875 105.019531 C 230.046875 99.03125 230.046875 42.566406 230.046875 36.578125 C 230.046875 27.0625 230.046875 17.484375 230.046875 7.964844 C 230.046875 5.761719 230.046875 3.554688 230.046875 1.347656 C 230.171875 0.152344 228.664062 0.0273438 228.347656 1.035156 Z M 228.347656 1.035156 " fill-opacity="1" fill-rule="nonzero"/></g><g clip-path="url(#e2664d2674)"><path fill="#060047" d="M 230.53125 1.035156 C 233.113281 9.101562 239.71875 15.152344 247.898438 17.167969 C 256.769531 19.375 266.082031 17.230469 274.449219 13.953125 C 278.980469 12.125 283.382812 9.984375 287.851562 7.902344 C 292.191406 5.886719 296.53125 3.742188 301.1875 2.421875 C 305.46875 1.222656 309.996094 0.84375 314.273438 2.105469 C 317.671875 3.113281 320.691406 5.003906 323.523438 7.082031 C 329.25 11.371094 334.535156 16.976562 341.644531 18.804688 C 348.941406 20.695312 356.429688 18.050781 363.164062 15.402344 C 370.019531 12.691406 377.066406 9.480469 384.617188 9.414062 C 392.796875 9.351562 399.214844 14.015625 405.316406 18.867188 C 408.527344 21.453125 411.734375 24.035156 415.445312 25.992188 C 419.097656 27.882812 422.996094 29.203125 427.023438 29.960938 C 435.078125 31.472656 443.632812 30.589844 451.183594 27.3125 C 453.007812 26.496094 454.769531 25.550781 456.46875 24.539062 C 456.847656 24.289062 457.160156 24.351562 457.476562 24.539062 C 457.664062 24.730469 457.851562 24.980469 457.851562 25.421875 C 457.851562 33.929688 457.851562 92.855469 457.851562 101.425781 C 457.851562 102.625 457.851562 103.820312 457.851562 105.019531 C 457.851562 105.523438 457.414062 105.964844 456.910156 105.964844 C 454.894531 105.964844 452.820312 105.964844 450.804688 105.964844 C 445.332031 105.964844 439.796875 105.964844 434.320312 105.964844 C 426.144531 105.964844 418.027344 105.964844 409.847656 105.964844 C 399.90625 105.964844 389.964844 105.964844 379.960938 105.964844 C 369.078125 105.964844 358.253906 105.964844 347.371094 105.964844 C 336.359375 105.964844 325.285156 105.964844 314.273438 105.964844 C 304.082031 105.964844 293.828125 105.964844 283.632812 105.964844 C 274.953125 105.964844 266.269531 105.964844 257.648438 105.964844 C 251.421875 105.964844 245.191406 105.964844 238.964844 105.964844 C 236.007812 105.964844 233.046875 106.027344 230.15625 105.964844 C 230.027344 105.964844 229.902344 105.964844 229.777344 105.964844 C 229.273438 105.964844 228.832031 105.523438 228.832031 105.019531 C 228.832031 99.03125 228.832031 42.566406 228.832031 36.578125 C 228.832031 27.0625 228.832031 17.484375 228.832031 7.964844 C 228.832031 5.761719 228.832031 3.554688 228.832031 1.347656 C 228.707031 0.152344 230.21875 0.0273438 230.53125 1.035156 Z M 230.53125 1.035156 " fill-opacity="1" fill-rule="nonzero"/></g></svg>